<svg fill="none" xmlns="http://www.w3.org/2000/svg" viewBox="0 0 410 410">
  <path d="M124.35 370.706L126.024 370.49V369.932H121.632V370.49L123.558 370.706L120.498 377.06L117.456 370.688L119.436 370.49V369.932H114.414V370.49L115.944 370.652L119.526 377.852C119.526 379.796 119.526 380.948 119.49 382.244L117.384 382.424V383H122.982V382.424L120.876 382.244C120.858 380.93 120.858 379.76 120.858 377.78L124.35 370.706ZM133.288 370.868C132.946 371.948 132.46 372.542 131.452 373.316L131.722 373.676C133.054 372.83 134.044 371.444 134.044 369.968C134.044 369.482 133.936 369.014 133.72 368.618C133.486 368.42 133.234 368.348 132.946 368.348C132.442 368.348 132.082 368.654 132.082 369.23C132.082 369.626 132.226 369.968 132.73 370.4L133.288 370.868ZM144.012 375.458C142.554 374.882 141.69 374.108 141.69 372.758C141.69 371.156 142.914 370.346 144.588 370.346C145.326 370.346 145.902 370.472 146.496 370.832L146.874 373.1H147.666L147.756 370.616C146.91 370.022 145.956 369.626 144.606 369.626C142.356 369.626 140.502 370.814 140.502 373.064C140.502 374.882 141.69 376.016 143.724 376.808L144.462 377.096C146.46 377.924 147.162 378.59 147.162 379.922C147.162 381.668 145.794 382.55 143.832 382.55C142.86 382.55 142.194 382.388 141.438 381.956L141.078 379.598H140.286L140.178 382.244C141.006 382.784 142.41 383.27 143.886 383.27C146.478 383.27 148.35 381.902 148.35 379.67C148.35 377.888 147.486 376.826 144.786 375.764L144.012 375.458ZM173.487 379.49L173.073 381.974C172.227 382.406 171.381 382.568 170.499 382.568C167.529 382.568 165.441 380.354 165.441 376.466C165.441 372.596 167.619 370.346 170.589 370.346C171.417 370.346 172.155 370.526 172.911 370.958L173.325 373.406H174.189L174.135 370.598C172.893 369.878 171.705 369.626 170.427 369.626C166.683 369.626 163.929 372.47 163.929 376.466C163.929 380.498 166.539 383.27 170.427 383.27C171.813 383.27 173.037 383.018 174.279 382.298L174.351 379.49H173.487ZM182.351 376.466C182.351 373.28 183.809 370.346 186.671 370.346C189.551 370.346 190.991 373.28 190.991 376.466C190.991 379.652 189.551 382.568 186.671 382.568C183.809 382.568 182.351 379.652 182.351 376.466ZM186.671 369.626C183.593 369.626 180.839 372.236 180.839 376.466C180.839 380.786 183.575 383.27 186.671 383.27C189.785 383.27 192.503 380.66 192.503 376.466C192.503 372.146 189.749 369.626 186.671 369.626ZM201.332 377.87L203.42 371.444L205.562 377.87H201.332ZM208.406 382.262L204.176 369.806H203.312L199.154 382.244L197.57 382.424V383H201.764V382.424L199.91 382.226L201.116 378.5H205.778L207.02 382.244L205.004 382.424V383H210.098V382.424L208.406 382.262ZM224.727 379.49L224.313 381.974C223.467 382.406 222.621 382.568 221.739 382.568C218.769 382.568 216.681 380.354 216.681 376.466C216.681 372.596 218.859 370.346 221.829 370.346C222.657 370.346 223.395 370.526 224.151 370.958L224.565 373.406H225.429L225.375 370.598C224.133 369.878 222.945 369.626 221.667 369.626C217.923 369.626 215.169 372.47 215.169 376.466C215.169 380.498 217.779 383.27 221.667 383.27C223.053 383.27 224.277 383.018 225.519 382.298L225.591 379.49H224.727ZM245.453 370.49V369.932H240.233V370.49L242.141 370.67C242.177 372.38 242.177 374.126 242.177 375.872H235.283C235.283 374.108 235.283 372.38 235.301 370.67L237.227 370.49V369.932H232.007V370.49L233.933 370.67C233.951 372.416 233.951 374.18 233.951 375.962V376.97C233.951 378.734 233.951 380.516 233.933 382.244L232.007 382.424V383H237.227V382.424L235.301 382.244C235.283 380.516 235.283 378.716 235.283 376.538H242.177C242.177 378.734 242.177 380.534 242.141 382.244L240.233 382.424V383H245.453V382.424L243.527 382.244C243.509 380.48 243.509 378.716 243.509 376.97V375.962C243.509 374.162 243.509 372.398 243.527 370.67L245.453 370.49ZM257.126 370.49V369.932H251.906V370.49L253.832 370.67C253.85 372.416 253.85 374.18 253.85 375.962V376.97C253.85 378.734 253.85 380.516 253.832 382.244L251.906 382.424V383H257.126V382.424L255.218 382.244C255.182 380.48 255.182 378.716 255.182 376.97V375.962C255.182 374.162 255.182 372.398 255.218 370.67L257.126 370.49ZM276.123 369.932H271.569V370.49L273.675 370.706L273.693 380.696L266.115 369.932H263.415V370.49L264.999 370.652L265.143 370.85L265.107 382.226L263.415 382.424V383H267.969V382.424L265.863 382.208L265.827 371.822L273.855 383.144H274.413L274.431 370.706L276.123 370.49V369.932ZM294.165 376.79H289.323V377.384L291.483 377.528C291.501 378.734 291.519 379.976 291.519 381.218V381.956C290.655 382.37 289.827 382.55 288.837 382.55C285.669 382.55 283.671 380.228 283.671 376.466C283.671 372.65 285.777 370.346 288.819 370.346C289.827 370.346 290.619 370.562 291.393 371.03L291.789 373.46H292.671L292.617 370.67C291.483 369.986 290.331 369.626 288.711 369.626C284.859 369.626 282.159 372.47 282.159 376.466C282.159 380.444 284.769 383.27 288.639 383.27C290.223 383.27 291.447 382.892 292.833 382.1V381.218C292.833 379.85 292.851 378.644 292.869 377.492L294.165 377.384V376.79Z" fill="#000"/>
  <path d="M129.904 75L279.904 75L354.904 204.904L279.904 334.808L129.904 334.808L54.9038 204.904L129.904 75Z" fill="#121212"/>
  <path d="M71.0171 205.244L138.13 89L272.357 89L339.47 205.244L272.357 321.487L138.13 321.487L71.0171 205.244Z" stroke="#FFFDFE" stroke-width="10"/>
  <path d="M142.275 223.1V202.925H156.525V223.1H142.275zM116.55 223.1V202.925H130.65V223.1H116.55zM160.8 195.35L155.85 200.825H142.275V187.475C144.375 187.175 144.9 186.35 145.05 185.3L130.65 183.95V200.825H117.375L105.075 196.175V232.775H106.725C111.45 232.775 116.55 230.225 116.55 229.1V225.2H130.65V255.125H132.825C137.25 255.125 142.275 252.275 142.275 251.15V225.2H156.525V231.5H158.55C162.3 231.5 168.075 229.55 168.15 228.95V204.8C169.725 204.5 170.625 203.75 171.075 203.15L160.8 195.35zM246.822 186.857C249.165 189.768 251.792 194.17 252.786 198.217 261.306 203.613 268.406 187.709 247.39 186.502L246.822 186.857zM242.278 202.406C244.337 205.246 246.183 209.648 246.396 213.624 254.135 219.801 262.584 204.891 242.846 202.051L242.278 202.406zM261.661 198.501C250.301 226.404 250.301 226.404 248.81 229.031 248.029 230.522 247.674 230.522 246.609 230.522H243.485V231.8C244.976 231.942 246.183 232.297 247.177 233.007 248.81 234.143 249.094 241.456 247.674 248.982 248.313 251.822 250.301 252.745 252.076 252.745 255.839 252.745 258.537 250.189 258.679 246.355 258.892 239.752 255.697 237.338 255.484 233.22 255.413 231.374 255.839 228.747 256.336 226.404 257.046 222.428 260.596 207.092 262.726 198.785L261.661 198.501zM289.422 217.884V212.488H302.699L298.368 217.884H289.422zM277.636 229.315C281.399 228.037 282.961 222.499 274.37 219.872H290.771C290.274 222.783 289.564 226.617 288.783 229.315H277.636zM280.547 203.329H296.877V205.956H298.51 298.723L295.031 210.5H289.422V205.885C290.984 205.601 291.339 205.033 291.481 204.252L280.547 203.329zM272.95 191.401H276.216V201.341H272.95V191.401zM286.369 191.401V201.341H282.961V191.401H286.369zM296.877 191.401V201.341H293.256V191.401H296.877zM305.468 212.488C306.462 212.488 307.172 212.133 307.385 211.352 305.184 209.506 302.06 207.092 300.498 205.885 304.19 205.601 306.249 204.465 306.249 204.181V191.969C307.811 191.685 308.45 191.259 308.876 190.62L300.853 184.656 296.593 189.413H273.66L264.004 185.792V207.021H265.637C270.181 207.021 272.95 205.601 272.95 205.033V203.329H279.695V210.5H264.004L264.572 212.488H279.695V217.884H260.667L261.235 219.872H270.607C271.601 221.931 272.311 224.984 271.956 227.753 272.737 228.534 273.589 229.031 274.441 229.315H261.235L261.803 231.303H279.695V238.545H263.081L263.649 240.533H279.695V252.532H281.47C286.511 252.532 289.422 251.041 289.422 250.757V240.533H306.959C307.953 240.533 308.734 240.178 308.947 239.397 305.752 236.628 300.427 232.794 300.427 232.794L295.812 238.545H289.422V231.303H308.166C309.16 231.303 309.941 230.948 310.083 230.167 307.101 227.611 302.202 223.919 302.202 223.919L297.942 229.315H290.629C293.54 227.469 296.735 225.126 298.794 223.351 300.285 223.422 301.137 222.854 301.421 222.002L293.895 219.872H309.018C310.083 219.872 310.864 219.517 311.006 218.736 308.237 216.393 303.977 213.198 303.054 212.488H305.468zM192.77 208.105C192.675 238.885 193.91 269.38 160.66 295.695L161.61 296.93C197.995 280.21 205.12 255.89 206.925 230.81 209.015 262.16 215.38 284.39 238.275 296.17 239.795 288.665 244.07 283.44 251.005 282.015L251.1 280.875C218.895 270.52 209.68 249.81 207.685 212.475 210.155 212.095 211.01 211.24 211.2 209.815L192.77 208.105zM173.821 159.064C173.643 164.137 169.104 168.142 165.188 169.566 161.806 170.99 159.314 173.927 160.293 177.932 161.539 182.204 166.345 183.717 170.172 181.848 175.779 179.356 179.606 170.99 174.8 159.064H173.821zM181.386 118.569C183.255 115.988 185.035 113.229 186.637 110.203 188.684 110.381 189.841 109.669 190.286 108.601L174.711 102.638C171.329 115.899 164.832 129.071 158.602 137.17L159.492 137.882C162.874 136.102 166.078 133.966 169.193 131.474V157.551H171.418C176.046 157.551 180.941 155.326 181.119 154.525V121.239C182.721 120.972 183.611 120.349 183.878 119.548L181.386 118.569zM221.08 164.226H220.19C218.143 168.854 216.63 171.791 215.562 173.126 214.85 173.927 214.138 174.194 212.714 174.283 211.468 174.372 208.709 174.372 205.95 174.372H196.961C194.291 174.372 193.935 174.016 193.935 172.948V161.2C195.804 160.933 196.605 160.132 196.783 158.886L181.475 157.818V175.796C181.475 183.895 183.789 185.764 194.38 185.764H204.437C220.902 185.764 225.619 183.45 225.619 178.377 225.619 176.063 224.729 174.639 221.347 173.393L221.08 164.226zM195.359 153.991C198.563 157.64 201.767 163.336 202.657 168.587 213.426 175.885 222.86 155.148 195.982 153.546L195.359 153.991zM219.3 160.488C224.64 165.294 229.446 173.037 230.781 180.335 243.33 188.879 252.942 163.247 219.923 159.954L219.3 160.488zM222.148 118.569C221.08 123.642 219.3 128.359 216.541 132.542 213.871 129.961 211.735 126.935 210.044 123.464 211.379 121.951 212.625 120.349 213.782 118.569H222.148zM241.817 118.569C243.152 118.569 244.131 118.124 244.398 117.145 239.948 113.407 233.184 108.512 233.184 108.512L227.043 116.077H215.295C216.541 114.119 217.609 111.983 218.588 109.669 220.635 109.758 221.792 108.957 222.237 107.8L206.128 102.816C204.704 112.695 201.144 122.04 196.872 129.338V116.166C199.008 115.81 199.631 115.009 199.809 113.941L186.014 112.695V147.672H187.972C192.066 147.672 196.872 145.892 196.872 145.091V134.055C201.144 131.741 204.971 128.893 208.442 125.244 209.688 129.605 211.201 133.61 212.981 137.348 206.929 144.29 197.94 149.897 185.747 154.08L186.103 155.059C198.919 152.923 209.154 149.274 217.164 144.29 221.614 150.431 227.666 155.148 236.21 158.352 237.1 152.211 239.503 148.473 244.754 146.515L244.932 145.536C236.833 144.023 230.069 141.798 224.462 138.594 230.247 133.165 234.074 126.49 236.299 118.569H241.817z" fill="#FFFDFE"/>
</svg>