<svg fill="none" xmlns="http://www.w3.org/2000/svg" viewBox="0 0 410 410">
  <path d="M129.904 75L279.904 75L354.904 204.904L279.904 334.808L129.904 334.808L54.9038 204.904L129.904 75Z" fill="#FFFDFE"/>
  <path class="social-icon-svg" d="M71.0171 205.244L138.13 89L272.357 89L339.47 205.244L272.357 321.487L138.13 321.487L71.0171 205.244Z" stroke="#000" stroke-width="10"/>
  <path d="M142.275 223.1V202.925H156.525V223.1H142.275zM116.55 223.1V202.925H130.65V223.1H116.55zM160.8 195.35L155.85 200.825H142.275V187.475C144.375 187.175 144.9 186.35 145.05 185.3L130.65 183.95V200.825H117.375L105.075 196.175V232.775H106.725C111.45 232.775 116.55 230.225 116.55 229.1V225.2H130.65V255.125H132.825C137.25 255.125 142.275 252.275 142.275 251.15V225.2H156.525V231.5H158.55C162.3 231.5 168.075 229.55 168.15 228.95V204.8C169.725 204.5 170.625 203.75 171.075 203.15L160.8 195.35zM246.822 186.857C249.165 189.768 251.792 194.17 252.786 198.217 261.306 203.613 268.406 187.709 247.39 186.502L246.822 186.857zM242.278 202.406C244.337 205.246 246.183 209.648 246.396 213.624 254.135 219.801 262.584 204.891 242.846 202.051L242.278 202.406zM261.661 198.501C250.301 226.404 250.301 226.404 248.81 229.031 248.029 230.522 247.674 230.522 246.609 230.522H243.485V231.8C244.976 231.942 246.183 232.297 247.177 233.007 248.81 234.143 249.094 241.456 247.674 248.982 248.313 251.822 250.301 252.745 252.076 252.745 255.839 252.745 258.537 250.189 258.679 246.355 258.892 239.752 255.697 237.338 255.484 233.22 255.413 231.374 255.839 228.747 256.336 226.404 257.046 222.428 260.596 207.092 262.726 198.785L261.661 198.501zM289.422 217.884V212.488H302.699L298.368 217.884H289.422zM277.636 229.315C281.399 228.037 282.961 222.499 274.37 219.872H290.771C290.274 222.783 289.564 226.617 288.783 229.315H277.636zM280.547 203.329H296.877V205.956H298.51 298.723L295.031 210.5H289.422V205.885C290.984 205.601 291.339 205.033 291.481 204.252L280.547 203.329zM272.95 191.401H276.216V201.341H272.95V191.401zM286.369 191.401V201.341H282.961V191.401H286.369zM296.877 191.401V201.341H293.256V191.401H296.877zM305.468 212.488C306.462 212.488 307.172 212.133 307.385 211.352 305.184 209.506 302.06 207.092 300.498 205.885 304.19 205.601 306.249 204.465 306.249 204.181V191.969C307.811 191.685 308.45 191.259 308.876 190.62L300.853 184.656 296.593 189.413H273.66L264.004 185.792V207.021H265.637C270.181 207.021 272.95 205.601 272.95 205.033V203.329H279.695V210.5H264.004L264.572 212.488H279.695V217.884H260.667L261.235 219.872H270.607C271.601 221.931 272.311 224.984 271.956 227.753 272.737 228.534 273.589 229.031 274.441 229.315H261.235L261.803 231.303H279.695V238.545H263.081L263.649 240.533H279.695V252.532H281.47C286.511 252.532 289.422 251.041 289.422 250.757V240.533H306.959C307.953 240.533 308.734 240.178 308.947 239.397 305.752 236.628 300.427 232.794 300.427 232.794L295.812 238.545H289.422V231.303H308.166C309.16 231.303 309.941 230.948 310.083 230.167 307.101 227.611 302.202 223.919 302.202 223.919L297.942 229.315H290.629C293.54 227.469 296.735 225.126 298.794 223.351 300.285 223.422 301.137 222.854 301.421 222.002L293.895 219.872H309.018C310.083 219.872 310.864 219.517 311.006 218.736 308.237 216.393 303.977 213.198 303.054 212.488H305.468zM192.77 208.105C192.675 238.885 193.91 269.38 160.66 295.695L161.61 296.93C197.995 280.21 205.12 255.89 206.925 230.81 209.015 262.16 215.38 284.39 238.275 296.17 239.795 288.665 244.07 283.44 251.005 282.015L251.1 280.875C218.895 270.52 209.68 249.81 207.685 212.475 210.155 212.095 211.01 211.24 211.2 209.815L192.77 208.105zM173.821 159.064C173.643 164.137 169.104 168.142 165.188 169.566 161.806 170.99 159.314 173.927 160.293 177.932 161.539 182.204 166.345 183.717 170.172 181.848 175.779 179.356 179.606 170.99 174.8 159.064H173.821zM181.386 118.569C183.255 115.988 185.035 113.229 186.637 110.203 188.684 110.381 189.841 109.669 190.286 108.601L174.711 102.638C171.329 115.899 164.832 129.071 158.602 137.17L159.492 137.882C162.874 136.102 166.078 133.966 169.193 131.474V157.551H171.418C176.046 157.551 180.941 155.326 181.119 154.525V121.239C182.721 120.972 183.611 120.349 183.878 119.548L181.386 118.569zM221.08 164.226H220.19C218.143 168.854 216.63 171.791 215.562 173.126 214.85 173.927 214.138 174.194 212.714 174.283 211.468 174.372 208.709 174.372 205.95 174.372H196.961C194.291 174.372 193.935 174.016 193.935 172.948V161.2C195.804 160.933 196.605 160.132 196.783 158.886L181.475 157.818V175.796C181.475 183.895 183.789 185.764 194.38 185.764H204.437C220.902 185.764 225.619 183.45 225.619 178.377 225.619 176.063 224.729 174.639 221.347 173.393L221.08 164.226zM195.359 153.991C198.563 157.64 201.767 163.336 202.657 168.587 213.426 175.885 222.86 155.148 195.982 153.546L195.359 153.991zM219.3 160.488C224.64 165.294 229.446 173.037 230.781 180.335 243.33 188.879 252.942 163.247 219.923 159.954L219.3 160.488zM222.148 118.569C221.08 123.642 219.3 128.359 216.541 132.542 213.871 129.961 211.735 126.935 210.044 123.464 211.379 121.951 212.625 120.349 213.782 118.569H222.148zM241.817 118.569C243.152 118.569 244.131 118.124 244.398 117.145 239.948 113.407 233.184 108.512 233.184 108.512L227.043 116.077H215.295C216.541 114.119 217.609 111.983 218.588 109.669 220.635 109.758 221.792 108.957 222.237 107.8L206.128 102.816C204.704 112.695 201.144 122.04 196.872 129.338V116.166C199.008 115.81 199.631 115.009 199.809 113.941L186.014 112.695V147.672H187.972C192.066 147.672 196.872 145.892 196.872 145.091V134.055C201.144 131.741 204.971 128.893 208.442 125.244 209.688 129.605 211.201 133.61 212.981 137.348 206.929 144.29 197.94 149.897 185.747 154.08L186.103 155.059C198.919 152.923 209.154 149.274 217.164 144.29 221.614 150.431 227.666 155.148 236.21 158.352 237.1 152.211 239.503 148.473 244.754 146.515L244.932 145.536C236.833 144.023 230.069 141.798 224.462 138.594 230.247 133.165 234.074 126.49 236.299 118.569H241.817z" class="social-icon-svg" fill="#000"/>
</svg>
