<svg width="410" height="410" viewBox="0 0 410 410" fill="none" xmlns="http://www.w3.org/2000/svg">
<path d="M129.904 75L279.904 75L354.904 204.904L279.904 334.808L129.904 334.808L54.9038 204.904L129.904 75Z" fill="#FFFDFE"/>
<path d="M71.0171 205.244L138.13 89L272.357 89L339.47 205.244L272.357 321.487L138.13 321.487L71.0171 205.244Z" stroke="black" stroke-width="10"/>
<path d="M137.5 262L139 261.4L139.7 261.5L140.5 261.1C140.8 260.6 141 260.1 141.1 259.4C141.1 258.9 141.1 258.2 141.2 257.6C141.2 256.9 141.2 256.3 141.3 255.7C141.3 255 141.3 254.3 141.3 253.6C141.3 252.9 141.3 252.2 141.2 251.6C141.2 251 141.2 250.4 141.1 249.7C141.1 248.8 141.2 248 141.2 247.3C141.3 246.5 141.4 245.7 141.5 244.8C141.5 244 141.5 243.1 141.6 242.2L141.4 239.6C141.5 237.3 141.6 234.9 141.6 232.7C141.7 230.3 141.9 228 142 225.7C142.1 223.4 142.4 221.1 142.8 218.9C143.3 218.6 144 218.4 144.8 218.3C145.5 218.2 146.2 218.2 147 218.2C147.7 218.2 148.4 218.2 149.2 218.1L151.1 218.2C151.5 218.2 151.9 218.2 152.3 218.2C152.6 218.2 152.9 218.2 153.3 218.1C153.7 218 154 217.9 154.3 217.7C154.5 217.7 154.6 217.5 154.8 217.4C154.9 217.3 155.2 217.2 155.3 217.1C155.4 217 155.5 216.8 155.6 216.7L155.5 215.5L155 215.2L155.2 214.6C155.4 214.6 155.6 214.7 155.8 214.8C155.9 215.1 156.1 215.1 156.3 215.2C156.6 215.3 156.7 215.3 157 215.4C157.6 215.4 158.3 215.4 158.8 215.3C159.5 215.2 160.1 215.1 160.5 214.7C160.9 214.4 161.5 214.1 162 213.9C162.7 212.5 163.4 211.3 164.1 210.1C164.8 208.8 165.5 207.7 166.3 206.5C167 205.3 167.5 204 167.9 202.6C167.9 202.3 167.9 202 167.9 201.8C167.8 201.5 167.6 201.2 167.5 200.9C167.4 200.6 167.4 200.4 167.3 200.1C166.8 199.1 166.1 198 165.2 197.2C164.3 196.3 163.4 195.5 162.5 194.6C161.6 193.9 160.7 193.1 159.9 192.1C158 192.3 156.2 192.7 154.3 192.9C152.3 193.2 150.5 193.4 148.6 193.6C146.8 193.9 144.9 194.2 143.1 194.8L142.7 194.5C142.7 193.5 142.8 192.3 142.9 191.3C143.1 190.2 143.2 189.2 143.3 188C143.3 187 143.3 185.9 143.6 185L143.4 182.4C142.8 181.5 142 180.7 141.2 179.8C140.3 179.1 139.5 178.3 138.8 177.4C138 176.6 137.2 175.7 136.5 175L135.1 175.3C134.6 175.1 134 174.8 133.4 174.6C132.9 174.3 132.3 174.1 131.7 173.9C131.1 173.5 130.4 173.3 129.8 173.3H129.4L130.1 174.4L130 174.9L128.7 174.3C129.1 175.4 129.5 176.4 130 177.4C130.5 178.5 131.1 179.4 131.7 180.4C132.5 181.3 133.1 182.3 133.8 183.2V192.1L134.2 195L134 196.6C133 197.3 131.7 197.7 130.6 198C129.4 198.4 128.3 198.7 127 199.2C125.9 199.6 124.7 200.1 123.5 200.5V200.6L121.7 201.7V201.8L120.7 202.2C121.2 202.4 121.8 202.6 122.4 202.9C123 203.2 123.5 203.5 124.2 203.6C124.8 203.9 125.4 203.9 126.1 204C127 204 127.9 203.9 128.8 203.8C129.6 203.7 130.5 203.5 131.3 203.2C132.2 202.9 133 202.7 133.8 202.5H134.4L134.5 202.7V211.4L134.7 214.1V214.5C133.5 214.9 132.5 215.1 131.3 215.4C130.2 215.6 129 215.9 127.9 216.1C126.8 216.4 125.6 216.6 124.6 217L123.3 216.9C122.9 215.6 122.7 214.5 122.4 213.2C122.2 212 121.9 210.8 121.6 209.6C121.1 208.3 120.5 207.2 119.8 206.1C118.8 205.3 117.7 204.4 116.6 203.6C115.5 202.9 114.3 202.4 113 202C111.8 201.6 110.4 201.3 109.2 200.9H108.8V201.3C109.1 201.8 109.3 202.3 109.8 202.8C110.1 203.4 110.4 203.9 110.8 204.4C111.2 204.8 111.5 205.4 111.9 205.9H112.1L112.3 206.4L113 207.1L113.2 207.2C114 208.5 114.5 209.8 114.9 211.2C115.4 212.6 115.7 214 116.1 215.3C116.5 216.8 117 218.1 117.9 219.2H118.1V219.4L118.6 219.8L119.6 220.3V220.5C120.1 220.7 120.5 220.9 121.1 221C121.8 221.1 122.3 221.2 122.9 221.3C123.5 221.4 124 221.4 124.6 221.5C125.6 221.5 126.8 221.4 127.9 221.3C129 221.2 130 221.1 131 220.8C132.1 220.6 133 220.4 134 220.2C134.2 220.2 134.3 220.2 134.4 220.2C134.5 220.2 134.6 220.2 134.7 220.2C134.7 220.2 134.7 220.3 134.8 220.3C134.9 221.3 134.9 222.4 134.8 223.3C134.7 224.3 134.7 225.3 134.7 226.3C134.6 227.2 134.5 228.2 134.5 229.3L134.6 233.9V240.1C134.8 242.2 134.9 244.4 135 246.5C135.1 248.7 135.1 250.8 135.3 252.8C135.5 254.9 135.6 257.1 135.9 259.2C136 259.4 136.3 259.7 136.4 259.9C136.5 260.2 136.7 260.4 136.9 260.6C137.2 260.8 137.3 261 137.5 261.2L137.4 261.5L137.5 262ZM145.4 212.9L143.3 213.3L142.1 213.2L141.9 211.3C142.1 210.1 142.2 208.7 142.3 207.4C142.3 206 142.3 204.6 142.3 203.2C142.3 201.8 142.6 200.5 143.1 199.4C143.7 199.2 144.5 198.8 145.3 198.7C146 198.6 146.9 198.4 147.6 198.3C148.4 198.3 149.2 198.1 149.9 198C150.6 198.1 151.3 198.1 152 198.1C152.7 198.1 153.5 198.1 154.2 198.2C154.9 198.3 155.6 198.3 156.2 198.4C155.8 200.1 155.4 201.7 154.9 203.3C154.4 204.8 154 206.5 153.7 208.1C153.4 209.7 152.9 211.2 152.5 212.9H152.3C152 212.9 151.8 212.8 151.5 212.5C151.3 212.3 151 212.1 150.6 212C150.4 211.9 150.1 211.7 149.8 211.6C149.4 211.7 149 211.8 148.5 212.1C148.1 212.3 147.7 212.5 147.3 212.6C146.9 212.8 146.3 212.9 145.9 212.9H145.4Z" fill="black"/>
<path d="M280.522 253.265C280.765 253.184 281.008 253.022 281.251 253.022C281.494 252.941 281.737 252.86 281.899 252.779C282.142 252.698 282.304 252.698 282.466 252.455C282.952 251.807 283.276 251.078 283.438 250.349C283.519 249.539 283.681 248.729 283.843 248C283.924 247.19 284.167 246.461 284.491 245.732L284.41 243.707V245.084L284.491 245.003V239.333C284.491 239.009 284.572 238.604 284.653 238.28C284.734 237.956 284.734 237.632 284.815 237.227C284.815 236.903 284.977 236.66 285.22 236.498L285.301 236.336L285.706 236.174C286.516 236.174 287.326 236.174 288.136 236.174C289.027 236.255 289.837 236.255 290.566 236.417C291.376 236.579 292.105 236.741 292.753 237.065C293.158 237.065 293.482 237.065 293.806 236.984C294.049 236.903 294.292 236.903 294.616 236.741C294.859 236.579 295.102 236.417 295.345 236.255L295.993 235.202C296.074 234.878 295.993 234.554 295.75 234.23C295.588 233.906 295.426 233.663 295.264 233.339C295.102 233.096 294.94 232.853 294.697 232.61C294.13 232.205 293.563 231.962 292.996 231.719C292.348 231.557 291.7 231.314 291.133 231.071C290.485 230.828 289.837 230.585 289.27 230.423C288.784 230.342 288.379 230.423 287.974 230.585C287.488 230.828 287.164 230.99 286.759 231.152C286.273 231.314 285.868 231.476 285.463 231.557L285.22 231.476L284.977 231.557L284.572 231.395L284.41 231.314L283.843 229.37C283.843 229.289 283.843 229.127 283.924 229.046C284.005 228.965 284.086 228.965 284.167 228.884C284.167 228.803 284.167 228.641 284.167 228.56C284.815 228.398 285.463 228.236 286.03 227.912C286.597 227.669 287.164 227.507 287.893 227.426C288.541 227.345 289.189 227.264 289.837 227.264C290.08 227.183 290.242 227.021 290.485 226.94C290.647 226.859 290.809 226.697 290.971 226.535C291.133 226.292 291.295 226.211 291.457 225.968C291.457 225.806 291.457 225.563 291.376 225.32C291.295 225.077 291.214 224.834 291.133 224.672C291.052 224.429 290.89 224.267 290.809 224.024L288.46 222.89C288.46 222.647 288.541 222.485 288.784 222.323C288.946 222.323 289.108 222.161 289.189 221.999C289.351 221.918 289.432 221.756 289.675 221.675L289.918 221.27H290.08C290.242 220.946 290.485 220.622 290.809 220.298C291.052 220.055 291.295 219.812 291.457 219.488C291.7 219.164 291.781 218.84 291.862 218.435L291.781 217.22C291.619 216.896 291.457 216.572 291.133 216.329C290.809 216.086 290.566 215.843 290.242 215.681C289.918 215.438 289.675 215.195 289.351 215.033L289.027 214.547L289.108 214.385L291.538 213.98C292.51 213.98 293.563 213.98 294.616 213.98C297.613 214.061 298.585 214.304 299.476 214.628C300.367 215.033 301.339 215.357 302.149 215.843C302.392 215.843 302.635 215.843 302.878 215.843C303.04 215.843 303.364 215.762 303.526 215.681C303.688 215.519 303.85 215.357 304.012 215.276C304.336 214.952 304.579 214.709 304.822 214.385C305.065 214.061 305.389 213.737 305.551 213.413C305.713 213.089 305.794 212.765 305.875 212.441L305.713 211.55C305.389 211.064 305.065 210.74 304.66 210.335C304.174 210.011 303.769 209.606 303.364 209.282C302.959 208.958 302.554 208.553 302.149 208.229L301.015 208.796L300.043 208.715L298.99 208.877L294.13 208.715C293.077 208.715 291.943 208.715 290.89 208.796C289.837 208.877 288.784 209.039 287.731 209.201C286.597 209.363 285.544 209.606 284.491 209.768L284.005 209.606L284.329 207.986C284.41 207.743 284.491 207.662 284.572 207.581C284.734 207.5 284.815 207.419 285.058 207.338C285.139 207.257 285.301 207.176 285.463 207.014V206.933H285.544L285.625 206.771C285.949 206.609 286.273 206.447 286.597 206.366C286.921 206.285 287.326 206.123 287.731 206.042C288.055 205.961 288.46 205.799 288.784 205.718C289.027 205.718 289.27 205.718 289.432 205.799C289.675 205.961 289.918 206.042 290.161 206.042C290.485 206.123 290.728 206.204 290.89 206.285C291.133 206.204 291.457 206.042 291.7 205.799C291.862 205.637 292.105 205.394 292.348 205.232C292.51 205.07 292.753 204.827 292.996 204.665C292.915 204.422 292.915 204.098 292.834 203.936C292.753 203.693 292.753 203.45 292.672 203.288C292.591 203.045 292.429 202.802 292.348 202.64C291.943 202.316 291.538 202.073 291.133 201.749C290.647 201.587 290.242 201.344 289.837 201.101C289.351 200.939 288.946 200.777 288.46 200.453C288.055 200.453 287.731 200.615 287.407 200.777C287.083 201.02 286.678 201.182 286.354 201.344C286.03 201.506 285.625 201.668 285.301 201.749L284.41 201.587L283.924 200.372H283.843L283.519 199.805H283.357L282.952 199.238L280.846 197.456V197.294C274.366 198.833 274.609 198.914 274.852 198.995L276.715 198.752L277.201 198.914L277.525 199.4H277.687L277.93 199.886H278.092C278.173 200.21 278.254 200.453 278.416 200.777C278.497 201.02 278.659 201.263 278.74 201.587C278.821 201.911 278.821 202.154 278.902 202.478L278.821 204.098C277.849 204.422 276.958 204.746 276.067 205.07C275.095 205.394 274.123 205.718 273.151 205.961C272.179 206.285 271.126 206.447 270.154 206.528L270.316 206.771V207.014L269.587 207.176L269.182 207.014H269.101V207.176L269.506 207.257L270.235 208.391C270.883 208.634 271.531 208.877 272.098 209.201C272.665 209.525 273.313 209.768 273.961 210.011C274.528 210.173 275.257 210.335 275.986 210.335C276.229 210.335 276.553 210.254 276.796 210.173C276.958 210.092 277.201 210.011 277.525 210.011C277.687 209.93 277.93 209.849 278.173 209.768L278.578 209.849C278.578 210.011 278.578 210.335 278.659 210.497C278.659 210.74 278.578 210.983 278.497 211.145C278.497 211.388 278.416 211.55 278.335 211.712C276.958 212.279 275.5 212.684 274.123 213.008C272.665 213.413 266.995 214.871 265.699 215.357C264.241 215.762 262.702 216.005 261.244 216.005L261.811 216.653L261.649 216.896L260.758 216.734H260.677V216.896L261.082 217.301L261.001 217.544C261.001 217.625 261.001 217.787 261.082 217.949C261.082 218.03 261.163 218.192 261.244 218.273C261.325 218.273 261.325 218.435 261.406 218.597L261.973 219.164L262.216 219.407H262.378L262.459 219.65L262.702 219.812H262.783V219.974L263.188 220.055V220.217C263.35 220.298 263.674 220.379 263.836 220.46C263.998 220.622 264.241 220.622 264.484 220.703C264.646 220.784 264.97 220.865 265.132 220.946C265.699 220.865 266.266 220.784 266.833 220.622C267.319 220.622 272.098 219.488 272.584 219.326C273.07 219.083 273.556 218.921 274.042 218.678L274.366 218.84C274.528 219.569 274.69 220.298 274.69 221.108C274.69 221.999 274.771 222.728 274.933 223.457C275.176 224.186 275.5 224.915 275.986 225.482L276.31 225.725V225.968C275.824 226.292 275.257 226.616 274.69 226.697C274.123 226.94 273.556 227.021 272.908 227.183C272.341 227.345 271.774 227.588 271.207 227.831V227.993C271.855 228.479 272.422 228.965 272.989 229.289C273.556 229.613 274.204 229.937 274.852 230.261C275.419 230.585 276.067 230.909 276.796 231.071C277.039 231.071 277.282 230.99 277.525 230.99C277.687 230.909 277.849 230.909 278.173 230.828C278.335 230.828 278.497 230.747 278.74 230.585L278.983 230.747C278.983 230.99 278.983 231.314 278.983 231.476C278.983 231.719 278.983 231.962 278.983 232.205C278.983 232.448 278.902 232.691 278.821 232.934C277.525 233.339 276.229 233.825 274.852 234.23C273.556 234.716 272.179 235.202 270.883 235.607C269.506 236.012 268.21 236.498 266.914 237.065V237.146C267.157 237.227 267.4 237.389 267.643 237.551C267.886 237.632 268.21 237.794 268.453 237.956C268.696 238.199 268.939 238.361 269.182 238.604H269.425V238.766C269.668 238.928 269.911 239.171 270.235 239.252C270.559 239.414 270.883 239.576 271.207 239.576C271.531 239.657 271.774 239.819 272.098 239.9C272.827 239.738 273.475 239.576 274.204 239.333C274.852 239.171 275.581 239.009 276.31 238.847C277.039 238.685 277.687 238.523 278.335 238.199C278.416 238.199 278.497 238.199 278.497 238.199C278.578 238.199 278.659 238.199 278.74 238.28C278.74 238.28 278.74 238.28 278.821 238.361L278.74 242.168V242.816C278.821 243.869 278.821 244.922 278.902 245.975C278.902 247.028 278.902 248.081 278.902 249.053C278.821 250.187 278.983 251.24 279.226 252.212C279.307 252.293 279.307 252.374 279.388 252.374C279.469 252.455 279.469 252.617 279.469 252.698C279.55 252.698 279.631 252.779 279.712 252.779V252.941L280.522 253.265ZM280.846 224.267L279.469 224.915L278.821 224.834L278.659 224.429C278.659 224.105 278.74 223.862 278.821 223.538C278.821 223.214 278.902 222.971 278.983 222.647C278.983 222.323 279.064 221.999 279.145 221.675C279.145 221.351 279.145 221.108 279.145 220.865C279.064 220.622 279.064 220.298 279.064 219.974C279.064 219.731 278.983 219.488 278.902 219.245L277.525 219.407C277.363 219.407 277.201 219.407 276.958 219.326C276.796 219.326 276.553 219.326 276.391 219.326C276.229 219.245 276.067 219.245 275.824 219.164L275.5 218.678V218.354C276.472 217.949 277.363 217.463 278.335 217.139C279.307 216.815 280.279 216.41 281.251 216.086C282.223 215.762 283.195 215.438 284.167 215.276L285.463 215.681C285.382 216.572 285.139 217.382 284.815 218.192C284.491 219.002 284.167 219.812 283.843 220.622C283.519 221.513 283.114 222.323 282.709 223.052L280.846 224.267ZM266.59 199.967V199.886L266.752 199.967C266.914 199.967 267.076 199.967 267.238 199.886C267.481 199.886 267.562 199.886 267.805 199.805C267.967 199.805 268.129 199.724 268.21 199.643C268.453 199.481 268.534 199.238 268.696 199.076C268.858 198.833 268.858 198.671 268.939 198.509C268.939 198.266 269.02 198.023 269.101 197.861C269.101 196.808 268.939 195.836 268.696 194.945C268.372 194.054 268.129 193.163 267.886 192.191C267.643 191.3 267.238 190.49 266.509 189.761C265.699 189.032 264.889 188.546 263.917 188.06C262.945 187.655 262.054 187.331 261.082 187.007C260.11 186.764 259.219 186.359 258.247 185.873H258.166C258.652 187.007 259.3 187.979 260.029 188.87C260.758 189.842 261.406 190.814 261.973 191.867C262.621 192.92 262.945 194.054 263.188 195.188L263.026 196.403C263.107 196.646 263.188 196.889 263.269 197.132C263.269 197.375 263.431 197.537 263.593 197.78C263.836 197.942 263.917 198.185 264.079 198.428L264.322 198.671C264.565 198.833 264.808 199.076 265.051 199.238C265.213 199.481 265.537 199.562 265.78 199.643C266.023 199.805 266.266 199.886 266.59 199.967ZM273.475 199.238C275.5 199.157 277.444 198.914 279.307 198.428C281.17 197.942 283.195 197.537 285.139 197.375C287.083 197.132 289.027 196.808 290.89 196.484L291.133 195.998C291.133 195.755 291.133 195.512 291.052 195.269C290.971 195.107 290.809 194.864 290.728 194.621C290.485 194.459 290.404 194.216 290.161 194.054C289.918 193.811 289.675 193.649 289.351 193.487C289.027 193.244 288.784 193.163 288.46 192.92C288.136 192.758 287.812 192.677 287.488 192.596C287.164 192.596 286.921 192.596 286.759 192.677C286.516 192.758 286.192 192.839 286.03 192.839C285.787 192.92 285.463 193.082 285.301 193.163L284.896 193.082C284.977 192.677 285.058 192.272 285.22 191.948C285.463 191.624 285.544 191.219 285.787 190.895C285.868 190.571 285.949 190.166 286.03 189.842C286.03 189.599 286.03 189.356 286.03 189.194C286.03 188.951 285.949 188.789 285.868 188.546C285.787 188.384 285.706 188.222 285.463 188.06L284.167 187.007V186.764C284.896 186.521 285.706 186.197 286.516 186.035C287.164 185.873 287.974 185.711 288.784 185.549C289.513 185.306 290.242 185.225 291.133 185.225C291.376 185.225 291.619 185.225 291.781 185.225C292.024 185.306 292.267 185.387 292.429 185.468C292.672 185.549 292.834 185.549 293.077 185.63C292.834 186.521 292.672 187.331 292.51 188.222C292.429 189.032 292.267 189.923 292.186 190.814C292.105 191.705 291.781 192.515 291.133 193.163C291.133 193.325 291.133 193.487 291.214 193.568C291.214 193.73 291.295 193.811 291.376 193.973C291.457 194.135 291.457 194.216 291.538 194.378C292.024 194.864 292.51 195.188 292.996 195.512C293.482 195.917 293.968 196.241 294.535 196.484C295.102 196.808 295.669 196.97 296.236 197.051C296.479 196.97 296.803 196.889 297.046 196.808C297.208 196.808 297.451 196.727 297.694 196.646C297.856 196.565 298.099 196.484 298.342 196.322C298.99 195.512 299.476 194.621 299.881 193.649C300.205 192.758 300.691 191.867 301.096 190.895C301.582 190.004 301.906 189.032 302.068 187.979C302.068 187.412 301.906 186.845 301.744 186.278C301.42 185.873 301.177 185.306 301.015 184.82C300.772 184.253 300.448 183.848 300.124 183.362C299.395 183.119 298.747 182.795 298.099 182.39C297.532 182.066 296.884 181.661 296.236 181.337C295.588 181.013 294.859 180.851 294.13 180.689C291.457 181.256 288.784 181.904 285.949 182.471C283.195 183.038 280.522 183.929 277.93 185.144C275.338 186.278 272.665 187.25 269.911 188.06L269.587 187.979H269.263V188.222L269.83 188.627V188.789C270.154 188.951 270.397 189.113 270.721 189.194C271.045 189.275 271.369 189.437 271.693 189.518C272.017 189.518 272.341 189.599 272.665 189.68L272.827 190.004L272.908 190.085L273.394 191.057L273.313 192.272C273.313 192.596 273.313 193.001 273.313 193.325C273.232 193.649 273.313 193.973 273.394 194.297C273.475 194.621 273.556 194.945 273.799 195.188L273.637 195.836C273.232 196.16 272.908 196.403 272.503 196.565C272.098 196.808 271.693 197.132 271.288 197.375C270.883 197.618 270.478 197.861 269.992 197.942L270.073 198.185C270.397 198.347 270.802 198.509 271.207 198.671C271.531 198.833 271.855 198.914 272.26 198.995C272.665 199.157 273.07 199.157 273.475 199.238ZM280.522 193.811C280.279 193.973 280.036 194.054 279.874 194.135C279.55 194.135 279.307 194.216 279.145 194.297C278.821 194.378 278.578 194.54 278.335 194.54H278.011L277.849 194.297C277.849 194.216 277.849 194.135 277.849 194.135C277.849 194.054 277.849 193.973 277.849 193.892C277.93 193.892 277.93 193.892 278.011 193.811L278.173 192.272C278.173 192.11 278.092 191.948 278.011 191.786C277.93 191.624 277.849 191.543 277.768 191.381C277.687 191.219 277.525 191.138 277.525 190.976C277.282 190.814 277.039 190.652 276.796 190.571C276.553 190.49 276.31 190.328 276.148 190.166C275.905 189.923 275.662 189.761 275.419 189.68C275.824 189.356 276.391 189.113 276.958 188.87C277.525 188.708 278.092 188.546 278.659 188.222C279.145 188.06 279.712 187.817 280.198 187.574C280.441 187.574 280.603 187.574 280.846 187.574C281.008 187.655 281.17 187.736 281.332 187.817C281.494 187.898 281.656 187.898 281.818 188.141C281.818 188.708 281.818 189.275 281.737 189.842C281.575 190.49 281.494 190.976 281.413 191.543C281.251 192.191 281.17 192.677 281.089 193.244L280.765 193.487L280.522 193.811ZM252.658 248.729L253.873 248.324C254.197 247.595 254.683 246.866 255.007 246.137C255.331 245.408 255.655 244.598 255.817 243.626C255.979 242.897 255.979 241.925 255.979 241.115L255.574 239.819C255.574 239.414 255.655 239.009 255.736 238.604C255.817 238.28 255.817 237.875 255.817 237.551C255.898 237.146 255.898 236.741 255.898 236.336C255.979 235.85 255.817 235.364 255.736 234.959C255.574 234.473 255.412 234.068 255.331 233.582C255.088 233.177 254.926 232.772 254.926 232.286L254.278 232.043H254.116L251.362 236.579H251.281L250.471 237.956H250.309V238.28C249.823 238.199 249.337 238.118 249.013 237.875C248.608 237.794 248.122 237.713 247.798 237.632C247.474 237.551 247.069 237.389 246.583 237.308H246.34L246.421 237.632V237.875L246.016 237.794H245.773L246.907 238.766C247.15 239.414 247.231 240.062 247.393 240.791C247.555 241.439 247.717 242.087 248.041 242.735C248.284 243.302 248.77 243.788 248.932 244.517L249.094 244.598C249.337 245.003 249.499 245.408 249.661 245.813C249.904 246.218 250.066 246.542 250.39 246.866C250.633 247.19 250.876 247.595 251.119 247.838L251.362 248.081H251.524L251.686 248.243L252.658 248.729ZM249.904 220.541C249.985 220.298 250.309 219.974 250.39 219.65C250.471 219.407 250.633 219.002 250.795 218.678C251.038 218.273 251.119 218.03 251.362 217.787L251.686 217.625L252.496 217.706L252.739 217.625C253.063 217.382 253.306 217.139 253.468 216.653C253.792 216.329 253.954 216.086 254.116 215.924C254.359 215.681 254.683 215.519 255.007 215.357L255.088 215.276L254.926 214.871L255.007 213.899C255.007 213.575 255.007 213.17 255.007 212.846C254.926 212.522 254.764 212.279 254.602 211.955C254.521 211.631 254.359 211.388 254.197 211.145C253.225 210.497 252.253 209.93 251.2 209.444C250.228 209.201 249.094 208.796 248.041 208.472C246.988 208.148 245.854 207.986 244.639 208.148C244.315 208.148 243.91 208.148 243.586 208.067C243.181 208.067 242.857 208.148 242.614 208.472C242.29 208.634 242.047 208.796 241.723 209.039L241.804 209.201L243.262 209.849C243.505 210.173 243.505 210.335 243.505 210.497C243.505 210.74 243.586 210.902 243.748 211.064C243.829 211.226 243.991 211.388 244.072 211.55H244.153L244.477 212.198L245.368 212.684V212.846H245.692V213.008L246.016 213.089V213.251L246.34 213.575L248.527 214.79L249.823 217.544C249.904 217.787 249.904 218.03 249.904 218.273C249.904 218.759 249.904 219.002 249.904 219.164C249.823 219.407 249.742 219.731 249.661 219.893C249.661 219.974 249.661 220.055 249.661 220.055C249.661 220.136 249.661 220.298 249.742 220.379C249.742 220.46 249.823 220.46 249.904 220.541ZM249.742 200.048C249.985 199.643 250.39 199.238 250.876 198.995C251.281 198.752 251.686 198.509 252.172 198.185C252.496 197.861 252.901 197.456 253.225 197.132L253.306 196.97L253.792 196.808C254.116 196.727 254.44 196.808 254.845 196.97C255.169 197.213 255.493 197.213 255.817 197.456C256.141 197.618 256.465 197.699 256.789 197.78C257.113 197.699 257.356 197.618 257.599 197.456C257.761 197.456 258.004 197.213 258.328 197.132C258.409 197.051 258.733 196.97 258.895 196.727C258.895 196.565 258.895 196.241 258.895 195.998C258.895 195.836 258.895 195.674 258.814 195.512C258.733 195.269 258.733 195.188 258.733 194.945L258.571 193.406C258.733 193.082 258.571 192.677 258.409 192.434C258.247 192.191 258.004 191.867 257.761 191.624C257.599 191.462 257.356 191.138 257.113 190.814C256.384 190.247 255.655 189.68 254.764 189.194C253.954 188.789 253.144 188.303 252.334 188.06C251.443 187.655 250.552 187.493 249.58 187.412H249.256V187.736L248.851 188.06C249.337 188.708 249.661 189.275 250.066 189.842C250.471 190.409 250.714 191.057 251.038 191.705C251.443 192.353 251.767 192.92 252.334 193.568C252.334 194.135 252.334 194.864 252.172 195.431C252.01 195.998 251.686 196.646 251.443 197.051C251.2 197.618 250.957 198.185 250.633 198.671L250.39 198.833L249.742 199.886V200.048Z" fill="black"/>
<path d="M253.762 299.006C255.231 299.006 256.926 298.893 258.508 298.78C259.977 298.667 261.333 298.215 262.689 297.537C264.045 296.859 265.401 295.955 266.531 294.938C262.802 293.356 258.96 291.774 255.005 290.305C251.05 288.836 246.982 287.48 243.027 286.124C239.072 284.655 231.388 280.813 231.388 280.813C230.936 280.587 230.145 280.022 230.145 280.022C229.693 279.909 229.354 279.683 228.902 279.57C227.433 278.553 226.19 277.423 224.947 276.406C223.704 275.276 222.348 274.259 220.992 273.242C219.523 272.225 218.167 271.208 217.037 269.965C216.811 269.739 216.472 269.513 216.246 269.287C215.907 268.948 215.568 268.835 215.342 268.609C215.003 268.496 212.969 266.462 212.178 265.897C211.274 265.445 210.37 264.767 209.805 264.089C209.127 263.411 208.336 262.733 207.545 262.055C207.093 261.603 206.641 261.264 206.189 260.925C205.737 260.586 205.285 260.134 204.833 259.795C204.381 259.456 203.816 259.23 203.364 258.891V258.778C202.573 258.326 201.895 257.761 201.104 257.196C200.2 256.744 199.522 256.179 198.731 255.727C197.827 255.275 197.036 254.823 196.245 254.371V254.145L195.228 253.693V253.58L194.098 253.015V252.789L192.742 252.224C193.646 249.512 194.889 247.252 196.471 244.879C197.827 242.619 199.296 240.359 200.765 237.986C202.234 235.726 203.364 233.353 204.042 230.641V228.155C203.364 227.251 202.686 226.686 201.895 226.008C201.104 225.443 200.313 224.991 199.522 224.313C198.731 223.748 198.053 223.07 197.375 222.279L196.132 221.714H195.228C195.002 221.714 194.776 221.714 194.55 221.714C194.437 221.714 194.211 221.714 194.098 221.601C193.872 221.488 193.646 221.488 193.533 221.375H192.855C193.194 221.827 193.42 222.279 193.759 222.731C194.098 223.183 194.55 223.522 194.889 224.087C195.115 224.539 195.341 224.991 195.454 225.443C193.307 229.737 191.273 233.918 189.013 237.986C186.753 242.167 184.493 246.348 182.233 250.416C179.973 254.597 177.713 258.778 175.566 262.959H175.453L173.984 265.784C173.871 266.01 173.758 266.236 173.645 266.236C173.419 266.462 173.306 266.688 173.193 266.688C172.967 266.914 172.854 267.14 172.628 267.14V267.366L172.176 267.705C171.95 268.157 171.837 268.722 171.611 269.174C171.385 269.626 171.272 270.078 170.933 270.53C170.707 270.982 170.481 271.547 170.255 271.999H170.029C169.577 272.903 169.125 273.807 168.56 274.598C167.995 275.502 167.43 276.406 166.865 277.31C166.187 278.101 165.509 279.005 164.944 279.909C164.944 280.022 164.944 280.022 164.944 280.022C164.944 280.135 164.944 280.248 165.057 280.248C165.17 280.361 165.17 280.361 165.283 280.474L165.848 280.361H166.187V280.587L166.526 280.813L166.752 281.943C167.543 281.943 168.221 281.83 169.125 281.717C169.916 281.604 170.707 281.604 171.498 281.491C172.402 281.491 173.08 281.265 173.758 280.813V280.587L174.21 280.361L174.662 280.022L175.114 279.57L176.018 278.44H176.131L177.487 276.632H177.713L177.826 276.293H177.939C179.634 274.033 181.103 271.773 182.459 269.4C183.815 267.14 185.171 264.767 186.753 262.507C188.109 260.134 189.578 257.874 190.934 255.614L191.499 255.84V255.953H191.725V256.179L192.064 256.292V256.405L194.776 258.778L195.115 259.23L195.68 259.682L196.132 260.134L197.375 261.038V261.264H197.488V261.49L198.166 262.055L198.279 262.281L198.618 262.62L199.522 263.637H199.635V263.863H199.861L200.2 264.428L200.652 264.767H200.765V264.993L201.104 265.219H201.217L201.443 265.671H201.556V265.897L201.895 266.236H202.008V266.349L202.46 266.801H202.686L202.912 267.14L203.364 267.592L204.268 268.496L205.624 270.078L208.901 273.468C209.014 273.92 209.353 274.259 209.579 274.485C209.918 274.937 210.144 275.276 210.37 275.615L213.986 279.118L216.02 281.039C216.359 281.152 218.619 283.751 218.619 283.751V283.977L218.958 284.203L220.54 285.446V285.672C230.823 293.695 233.422 294.599 233.422 294.599C234.1 294.938 234.891 295.39 235.569 295.729C236.247 296.068 236.925 296.294 237.716 296.633C238.62 296.859 239.298 297.198 240.089 297.198H240.541C241.897 297.763 243.253 298.102 244.722 298.328C246.191 298.554 247.66 298.667 249.242 298.78C250.711 298.893 252.18 299.006 253.762 299.006Z" fill="black"/>
<path d="M226.2 190.3L227.1 189.7L228.1 190C229.5 189.8 231.1 189.6 232.5 189.1C233 187.8 233.6 186.5 234.1 185.1C233.5 183.6 233.2 182.2 232.7 180.6L232.4 180.5V180.3H232.3V180.1C230.2 178.7 228 177.4 225.9 176.2V176.1C223.7 174.9 221.7 173.7 219.6 172.5V172.3H219.4L219.7 172.5L220.9 174.4V174.6L219.5 173.7H219.4L219.9 175.5V175.8L219.5 175.6H219.2L219.1 175.8C219.3 176.5 219.4 177.3 219.6 178C219.7 178.4 219.6 178.7 219.3 179C210.7 178.8 202.8 176.2 195.8 171.4L194.9 170.5H194.7V170.4L194.3 170.1H194.2L194.1 169.8L193.8 169.7V169.6H193.6V169.4L193.3 169.3V169.2L192.9 168.9V168.7L192.7 168.5L192.1 168H191.9V167.9H191.7L191.8 167.7L191.1 167L190.7 166.9V166.7C189.1 165.8 187.4 165 185.5 164.3V164.5C185.9 164.6 186.3 164.7 186.5 165.1L186.4 165.5L185.8 165.4H185.1L185.6 166L185.7 166.4C185.9 166.8 186.2 167.2 186.5 167.5L186.3 167.7L186.2 167.6H185.9L186.7 168.5C188.8 171.3 190.8 174 192.6 176.9L192.8 177.1L193.8 178.3L193.9 178.5L194.2 178.8L194.5 179.1L195.4 179.8V180L195.8 180.1V180.3L196.7 180.9V181.1L197.3 181.4V181.6C202.5 185.6 208.3 188.1 214.6 189.3L215.3 189.2C218 189.6 220.9 189.9 223.8 190.1C224.4 190.2 225 190 225.4 189.7H225.8L226.2 190.3ZM173.7 178.9H173.9L175.4 178.6L175.9 178.2H176.1L176.3 178.8H176.6V178.7C177.7 178.2 178.7 177.6 179.6 176.9C180.7 174.5 181.4 171.9 181.8 169C181.9 167.8 181.7 166.8 181.1 165.8C181 165.6 181 165.5 180.8 165.4V165.3L180.3 164.7L180.1 164.5V164.4H179.9V164.2L179.6 163.9L179.3 163.8V163.6L179 163.4C178.2 162.6 177.3 162.1 176.2 161.8H175.9C175.8 163 175.9 164 176.2 165C175 168.4 173.7 171.7 172.5 175.1C172.6 176 172.8 176.8 173 177.7L172.9 178.3L172.6 178.5V178.7L173.7 178.9ZM238.3 173.7L239.4 173.2L239.8 172.6H240L241.3 170.6C241.4 168.8 241.1 167.1 240.6 165.6C236.2 162.6 231.3 160.8 226.2 159.8H225.7L226.4 160.3V160.5L226.1 160.7V160.9L226.9 161.6V161.7H226.3L226.8 162L227.2 163.4H227.4V163.5L228.7 165.1H228.9C230 166.2 230.6 167.3 230.9 168.7C231.7 169 232.5 169.3 233.3 169.9V170.1H233.4L233.8 170.5H234L234.2 170.7L235 171.3V171.5L235.5 171.9L235.9 172.1V172.3L236.7 172.6V172.8L238.3 173.7ZM210.5 170H210.9L210.8 169.6L210.9 169.3L211.2 169.4C211.6 169.5 212 169.4 212.3 169.3L212.6 168.9C213 168.4 213.4 167.8 213.6 167.1C213.6 165.4 213.4 163.9 212.8 162.4C209.8 161 206.4 160 203 159.3C201.7 158.9 200.7 159.3 200 160.1C199.9 160.8 200.1 161.3 200.5 161.8L202.5 162.7C203.8 163.2 204.8 164.1 205.6 165.3L205.8 165.6L206.1 166L206.7 166.6L206.8 166.8L208.1 167.8V167.9L208.8 168.4V168.6L210.5 170ZM236.6 158.9C240 158.4 243.3 157.8 246.4 157.3L247.5 157.4C248.5 157.5 249.5 157.2 250.4 157C251.1 156.1 251.4 155.1 251.6 153.9L251.5 152.4L250.1 151.7L250.2 151.3L251.5 151.9V151.6C242.6 150.1 234.3 147 226.7 142V141.9L223.3 139.4V139.3L222.6 138.7L222.4 138.2C223.9 135.9 224.8 133.3 225.4 130.5C225.4 129.1 225.1 128 224.3 127C222.9 125.7 221.3 124.8 219.6 124.4C218.4 124.4 217.4 124.7 216.6 125.1V125.9L216.1 126.5V126.8L216.5 127V127.1C216.9 127.4 217.2 127.7 217.3 128.2C216.8 129.6 216.2 131.2 215.5 132.6C213.9 131.1 212.3 130.2 210.3 129.8C209.3 129.7 208.3 130 207.2 130.5V130.7H207.1L206.4 131.5L206.6 132C206.9 132.4 207.2 132.6 207.9 132.5C209.3 133.8 210.6 135 211.9 136.5L212.6 137.6L208.5 144.1L208.3 144C207.1 145.6 206.1 147 205 148.5H204.8L204.6 148.8V148.9L204.3 149.2L203.6 149.7L203.1 150.4H203L202.5 150.9V151.1L201.9 151.2L201.8 151.4C201.3 151.8 200.6 152.1 200 152.3L200.1 152.7L201.3 152.8H202.4L205.8 153L205.7 153.8L208.4 153.6L209.2 153.7L209.8 153.5L209.6 153.1L209.1 153.3H208.9L209 153C210 152.7 210.9 152.5 211.8 152.1L212.2 151.6L212.7 151.3L213.7 150.3V150.1L214.7 149.6C215.3 148.9 215.7 148.3 216 147.6C216.2 147.3 216.4 147 216.8 146.8L218.5 144.6H218.7V144.8L219.1 145.2H219.3V145.4L219.9 145.7V145.9L220.1 146.3L220.5 146.6L220.9 147L221.6 147.6L222.1 148V148.1C223.3 148.9 224.5 149.7 225.4 150.8C229 153.8 232.7 156.6 236.6 158.9ZM178.2 155.4C179.7 155.6 181 155.5 182.3 154.9C182.7 154.3 182.9 153.6 183.1 153C183.1 147.7 183.1 142.3 182.8 137.2L182.4 136.7V136.6C181.5 134.7 180.4 132.8 179.3 131L179.2 130.7L179 130.6L178.6 129.4C182.6 124.1 185.7 118.2 188 111.9C188.1 110.9 187.7 109.8 187.1 108.9C184.7 106.3 181.9 104.5 178.6 103.8H178.5C179.1 105.6 179.8 107.4 180.7 109.2C177 118.7 172 127.8 165.9 136.2H165.8L163 140.5L163.2 140.9C163.9 140.4 164.6 140 165.4 139.6L166 139L166.3 138.7L166.8 138.3V138.2H167L166.6 138.8L166.7 139.1L167.4 138.7C167.9 138.2 168.3 137.9 168.9 137.7H169.1L168.7 138.1L168.3 139.1L167.8 139.5C167.4 139.9 167 140.4 166.8 140.9L166.9 141.3H167L170 137.8C171.1 137 171.6 136.1 172 134.9L173.1 134.1L173.6 133.6H173.8L174 133.3H174.3L174.2 133.7L174.1 133.9H174.3L175.4 132.7H175.6C176.6 137.5 176.8 142.5 176.6 147.7L176.4 149.1C176.1 151.2 176.3 153.2 177.4 154.9L178.2 155.4ZM193.2 148.9C194.5 148.9 195.8 148.5 196.9 147.7C197.7 146.6 197.9 145.3 198 143.9L198.3 137.5L198.8 134.9C199.1 132.9 198.8 131.2 198 129.7H197.9V129.5H197.7L197.6 129.2L197.4 129L197.1 128.7L196.8 128.4H196.6V128.3L196.2 127.7L194.3 126.4V126.2L190 123.5H189.6L189.9 124.9L189.5 126.1C190 128.1 190.6 130 191.2 131.9L191.1 134.1L190.7 140.7C190.5 143.3 190.9 145.8 191.9 148.2L192.3 148.4V148.6L193.2 148.9ZM203.4 123.3C204.9 122.7 206.5 121.9 208.1 121.1H208.3L208 121.8V122.1C208.8 122 209.4 121.8 210 121.2L210.6 120.7L210.7 120.6L211.3 120.2C213.1 120.8 215.2 121.3 217.2 121.7C221.7 121.3 226 120.6 230.4 119.7C230.9 119.7 231.5 119.9 232 120.1C232.9 120.1 233.6 119.9 234.2 119.4L234.5 119.2C235.5 118.3 236.2 117.3 236.5 116.4C236.6 115.8 236.4 115.3 236 114.9C234.5 113.7 232.7 113 230.6 112.8C225.3 114.2 220.2 115.9 214.9 117.6H214.3C216.1 115.8 217.2 113.6 217.8 111.4C218 109.8 217.7 108.3 216.7 107.2C214.3 104.9 211.5 103.4 208.3 102.7H208C208.2 104.7 208.6 106.5 209.6 108.3C207.7 113.3 205.5 118.3 203.4 123.2V123.3Z" fill="black"/>
</svg>
